<mxfile host="Electron" agent="Mozilla/5.0 (Windows NT 10.0; Win64; x64) AppleWebKit/537.36 (KHTML, like Gecko) draw.io/26.0.16 Chrome/132.0.6834.196 Electron/34.2.0 Safari/537.36" version="26.0.16">
  <diagram id="C5RBs43oDa-KdzZeNtuy" name="Page-1">
    <mxGraphModel dx="1461" dy="1992" grid="1" gridSize="10" guides="1" tooltips="1" connect="1" arrows="1" fold="1" page="1" pageScale="1" pageWidth="827" pageHeight="1169" math="0" shadow="0">
      <root>
        <mxCell id="WIyWlLk6GJQsqaUBKTNV-0" />
        <mxCell id="WIyWlLk6GJQsqaUBKTNV-1" parent="WIyWlLk6GJQsqaUBKTNV-0" />
        <mxCell id="KSneiJCa3dcjakUQ5oGv-4" value="" style="edgeStyle=orthogonalEdgeStyle;rounded=0;orthogonalLoop=1;jettySize=auto;html=1;" parent="WIyWlLk6GJQsqaUBKTNV-1" source="WIyWlLk6GJQsqaUBKTNV-3" target="WIyWlLk6GJQsqaUBKTNV-7" edge="1">
          <mxGeometry relative="1" as="geometry" />
        </mxCell>
        <mxCell id="WIyWlLk6GJQsqaUBKTNV-3" value="Read files and ensure channels are the same" style="rounded=1;whiteSpace=wrap;html=1;fontSize=12;glass=0;strokeWidth=1;shadow=0;" parent="WIyWlLk6GJQsqaUBKTNV-1" vertex="1">
          <mxGeometry x="150" y="-30" width="140" height="80" as="geometry" />
        </mxCell>
        <mxCell id="KSneiJCa3dcjakUQ5oGv-3" value="" style="edgeStyle=orthogonalEdgeStyle;rounded=0;orthogonalLoop=1;jettySize=auto;html=1;" parent="WIyWlLk6GJQsqaUBKTNV-1" source="WIyWlLk6GJQsqaUBKTNV-7" target="KSneiJCa3dcjakUQ5oGv-2" edge="1">
          <mxGeometry relative="1" as="geometry" />
        </mxCell>
        <mxCell id="WIyWlLk6GJQsqaUBKTNV-7" value="Clean electrode list" style="rounded=1;whiteSpace=wrap;html=1;fontSize=12;glass=0;strokeWidth=1;shadow=0;" parent="WIyWlLk6GJQsqaUBKTNV-1" vertex="1">
          <mxGeometry x="160" y="120" width="120" height="40" as="geometry" />
        </mxCell>
        <mxCell id="KSneiJCa3dcjakUQ5oGv-9" value="" style="rounded=0;whiteSpace=wrap;html=1;" parent="WIyWlLk6GJQsqaUBKTNV-1" vertex="1">
          <mxGeometry x="100" y="421.25" width="240" height="650" as="geometry" />
        </mxCell>
        <mxCell id="TrvgTkUY0OSFZOKpx4KV-4" value="" style="edgeStyle=orthogonalEdgeStyle;rounded=0;orthogonalLoop=1;jettySize=auto;html=1;" parent="WIyWlLk6GJQsqaUBKTNV-1" source="KSneiJCa3dcjakUQ5oGv-2" target="TrvgTkUY0OSFZOKpx4KV-3" edge="1">
          <mxGeometry relative="1" as="geometry" />
        </mxCell>
        <mxCell id="fW-BFmnXzl84MXB9v9qA-1" value="" style="edgeStyle=orthogonalEdgeStyle;rounded=0;orthogonalLoop=1;jettySize=auto;html=1;" parent="WIyWlLk6GJQsqaUBKTNV-1" source="KSneiJCa3dcjakUQ5oGv-2" target="fW-BFmnXzl84MXB9v9qA-0" edge="1">
          <mxGeometry relative="1" as="geometry" />
        </mxCell>
        <mxCell id="KSneiJCa3dcjakUQ5oGv-2" value="Create bipolar montage" style="rounded=1;whiteSpace=wrap;html=1;fontSize=12;glass=0;strokeWidth=1;shadow=0;" parent="WIyWlLk6GJQsqaUBKTNV-1" vertex="1">
          <mxGeometry x="160" y="210" width="120" height="40" as="geometry" />
        </mxCell>
        <mxCell id="KSneiJCa3dcjakUQ5oGv-8" value="" style="edgeStyle=orthogonalEdgeStyle;rounded=0;orthogonalLoop=1;jettySize=auto;html=1;" parent="WIyWlLk6GJQsqaUBKTNV-1" source="KSneiJCa3dcjakUQ5oGv-5" target="KSneiJCa3dcjakUQ5oGv-7" edge="1">
          <mxGeometry relative="1" as="geometry" />
        </mxCell>
        <mxCell id="KSneiJCa3dcjakUQ5oGv-5" value="Extract metadata" style="rounded=1;whiteSpace=wrap;html=1;fontSize=12;glass=0;strokeWidth=1;shadow=0;" parent="WIyWlLk6GJQsqaUBKTNV-1" vertex="1">
          <mxGeometry x="160" y="451.25" width="120" height="40" as="geometry" />
        </mxCell>
        <mxCell id="KSneiJCa3dcjakUQ5oGv-12" value="" style="edgeStyle=orthogonalEdgeStyle;rounded=0;orthogonalLoop=1;jettySize=auto;html=1;" parent="WIyWlLk6GJQsqaUBKTNV-1" source="KSneiJCa3dcjakUQ5oGv-7" target="KSneiJCa3dcjakUQ5oGv-11" edge="1">
          <mxGeometry relative="1" as="geometry" />
        </mxCell>
        <mxCell id="KSneiJCa3dcjakUQ5oGv-7" value="Count number of 30s epochs and initiate part of SleepStage with that many" style="rounded=1;whiteSpace=wrap;html=1;fontSize=12;glass=0;strokeWidth=1;shadow=0;" parent="WIyWlLk6GJQsqaUBKTNV-1" vertex="1">
          <mxGeometry x="145" y="541.25" width="150" height="70" as="geometry" />
        </mxCell>
        <mxCell id="KSneiJCa3dcjakUQ5oGv-10" value="For each file" style="text;html=1;align=center;verticalAlign=middle;whiteSpace=wrap;rounded=0;" parent="WIyWlLk6GJQsqaUBKTNV-1" vertex="1">
          <mxGeometry x="90" y="390" width="80" height="30" as="geometry" />
        </mxCell>
        <mxCell id="KSneiJCa3dcjakUQ5oGv-14" value="" style="edgeStyle=orthogonalEdgeStyle;rounded=0;orthogonalLoop=1;jettySize=auto;html=1;" parent="WIyWlLk6GJQsqaUBKTNV-1" source="KSneiJCa3dcjakUQ5oGv-11" target="KSneiJCa3dcjakUQ5oGv-13" edge="1">
          <mxGeometry relative="1" as="geometry" />
        </mxCell>
        <mxCell id="KSneiJCa3dcjakUQ5oGv-11" value="Throw out channels that have different number of samples per record" style="rounded=1;whiteSpace=wrap;html=1;fontSize=12;glass=0;strokeWidth=1;shadow=0;" parent="WIyWlLk6GJQsqaUBKTNV-1" vertex="1">
          <mxGeometry x="127.5" y="661.25" width="185" height="90" as="geometry" />
        </mxCell>
        <mxCell id="KSneiJCa3dcjakUQ5oGv-16" value="" style="edgeStyle=orthogonalEdgeStyle;rounded=0;orthogonalLoop=1;jettySize=auto;html=1;" parent="WIyWlLk6GJQsqaUBKTNV-1" source="KSneiJCa3dcjakUQ5oGv-13" target="KSneiJCa3dcjakUQ5oGv-15" edge="1">
          <mxGeometry relative="1" as="geometry" />
        </mxCell>
        <mxCell id="KSneiJCa3dcjakUQ5oGv-13" value="Read buffer (read relevant part of the file)" style="rounded=1;whiteSpace=wrap;html=1;fontSize=12;glass=0;strokeWidth=1;shadow=0;" parent="WIyWlLk6GJQsqaUBKTNV-1" vertex="1">
          <mxGeometry x="143.44" y="801.25" width="153.12" height="50" as="geometry" />
        </mxCell>
        <mxCell id="KSneiJCa3dcjakUQ5oGv-24" value="" style="edgeStyle=orthogonalEdgeStyle;rounded=0;orthogonalLoop=1;jettySize=auto;html=1;" parent="WIyWlLk6GJQsqaUBKTNV-1" source="KSneiJCa3dcjakUQ5oGv-15" target="KSneiJCa3dcjakUQ5oGv-23" edge="1">
          <mxGeometry relative="1" as="geometry" />
        </mxCell>
        <mxCell id="KSneiJCa3dcjakUQ5oGv-15" value="Compute bipolar signals" style="rounded=1;whiteSpace=wrap;html=1;fontSize=12;glass=0;strokeWidth=1;shadow=0;" parent="WIyWlLk6GJQsqaUBKTNV-1" vertex="1">
          <mxGeometry x="143.44" y="891.25" width="153.12" height="50" as="geometry" />
        </mxCell>
        <mxCell id="KSneiJCa3dcjakUQ5oGv-26" value="" style="edgeStyle=orthogonalEdgeStyle;rounded=0;orthogonalLoop=1;jettySize=auto;html=1;" parent="WIyWlLk6GJQsqaUBKTNV-1" source="KSneiJCa3dcjakUQ5oGv-23" target="KSneiJCa3dcjakUQ5oGv-25" edge="1">
          <mxGeometry relative="1" as="geometry" />
        </mxCell>
        <mxCell id="KSneiJCa3dcjakUQ5oGv-23" value="Compute features for each epoch, for each channel" style="rounded=1;whiteSpace=wrap;html=1;fontSize=12;glass=0;strokeWidth=1;shadow=0;fillColor=light-dark(#9999FF,var(--ge-dark-color, #121212));" parent="WIyWlLk6GJQsqaUBKTNV-1" vertex="1">
          <mxGeometry x="143.44" y="981.25" width="153.12" height="50" as="geometry" />
        </mxCell>
        <mxCell id="KSneiJCa3dcjakUQ5oGv-28" value="" style="edgeStyle=orthogonalEdgeStyle;rounded=0;orthogonalLoop=1;jettySize=auto;html=1;" parent="WIyWlLk6GJQsqaUBKTNV-1" source="KSneiJCa3dcjakUQ5oGv-25" target="KSneiJCa3dcjakUQ5oGv-27" edge="1">
          <mxGeometry relative="1" as="geometry" />
        </mxCell>
        <mxCell id="KSneiJCa3dcjakUQ5oGv-33" value="" style="edgeStyle=orthogonalEdgeStyle;rounded=0;orthogonalLoop=1;jettySize=auto;html=1;" parent="WIyWlLk6GJQsqaUBKTNV-1" source="KSneiJCa3dcjakUQ5oGv-25" target="KSneiJCa3dcjakUQ5oGv-32" edge="1">
          <mxGeometry relative="1" as="geometry" />
        </mxCell>
        <mxCell id="KSneiJCa3dcjakUQ5oGv-25" value="Preprocess features" style="rounded=1;whiteSpace=wrap;html=1;fontSize=12;glass=0;strokeWidth=1;shadow=0;fillColor=light-dark(#9999FF,#000000);" parent="WIyWlLk6GJQsqaUBKTNV-1" vertex="1">
          <mxGeometry x="143.44" y="1108.75" width="153.12" height="50" as="geometry" />
        </mxCell>
        <mxCell id="KSneiJCa3dcjakUQ5oGv-27" value="For each channel, for each feature, delete outliders , smooth, normalize" style="whiteSpace=wrap;html=1;fillColor=light-dark(#FFFFFF,#000000);rounded=1;glass=0;strokeWidth=1;shadow=0;" parent="WIyWlLk6GJQsqaUBKTNV-1" vertex="1">
          <mxGeometry x="414" y="1090" width="210" height="87.5" as="geometry" />
        </mxCell>
        <mxCell id="KSneiJCa3dcjakUQ5oGv-32" value="Select Model:&lt;div&gt;-&amp;nbsp;&lt;span style=&quot;text-wrap-mode: nowrap; background-color: transparent; color: light-dark(rgb(0, 0, 0), rgb(255, 255, 255));&quot;&gt;BEA: Blind to epileptic activity&lt;/span&gt;&lt;/div&gt;&lt;div&gt;&lt;span style=&quot;text-wrap-mode: nowrap; background-color: transparent; color: light-dark(rgb(0, 0, 0), rgb(255, 255, 255));&quot;&gt;-&amp;nbsp;&lt;/span&gt;&lt;span style=&quot;text-wrap-mode: nowrap; background-color: transparent; color: light-dark(rgb(0, 0, 0), rgb(255, 255, 255));&quot;&gt;EEA: Excluding epileptic activity&lt;/span&gt;&lt;/div&gt;" style="rhombus;whiteSpace=wrap;html=1;fillColor=light-dark(#FFFFFF,#000000);rounded=1;glass=0;strokeWidth=1;shadow=0;" parent="WIyWlLk6GJQsqaUBKTNV-1" vertex="1">
          <mxGeometry x="77.5" y="1205" width="285" height="145" as="geometry" />
        </mxCell>
        <mxCell id="KSneiJCa3dcjakUQ5oGv-37" value="" style="edgeStyle=orthogonalEdgeStyle;rounded=0;orthogonalLoop=1;jettySize=auto;html=1;exitX=0.5;exitY=1;exitDx=0;exitDy=0;" parent="WIyWlLk6GJQsqaUBKTNV-1" source="KSneiJCa3dcjakUQ5oGv-32" target="KSneiJCa3dcjakUQ5oGv-38" edge="1">
          <mxGeometry relative="1" as="geometry">
            <mxPoint x="440" y="1360" as="sourcePoint" />
          </mxGeometry>
        </mxCell>
        <mxCell id="KSneiJCa3dcjakUQ5oGv-42" value="" style="edgeStyle=orthogonalEdgeStyle;rounded=0;orthogonalLoop=1;jettySize=auto;html=1;" parent="WIyWlLk6GJQsqaUBKTNV-1" source="KSneiJCa3dcjakUQ5oGv-38" target="KSneiJCa3dcjakUQ5oGv-41" edge="1">
          <mxGeometry relative="1" as="geometry" />
        </mxCell>
        <mxCell id="KSneiJCa3dcjakUQ5oGv-38" value="Determine cluster for each channel&amp;nbsp;" style="whiteSpace=wrap;html=1;fillColor=light-dark(#FFE599,#000000);rounded=1;glass=0;strokeWidth=1;shadow=1;" parent="WIyWlLk6GJQsqaUBKTNV-1" vertex="1">
          <mxGeometry x="160" y="1410" width="120" height="60" as="geometry" />
        </mxCell>
        <mxCell id="KSneiJCa3dcjakUQ5oGv-44" value="" style="edgeStyle=orthogonalEdgeStyle;rounded=0;orthogonalLoop=1;jettySize=auto;html=1;" parent="WIyWlLk6GJQsqaUBKTNV-1" source="KSneiJCa3dcjakUQ5oGv-41" target="KSneiJCa3dcjakUQ5oGv-43" edge="1">
          <mxGeometry relative="1" as="geometry" />
        </mxCell>
        <mxCell id="KSneiJCa3dcjakUQ5oGv-47" value="" style="edgeStyle=orthogonalEdgeStyle;rounded=0;orthogonalLoop=1;jettySize=auto;html=1;" parent="WIyWlLk6GJQsqaUBKTNV-1" source="KSneiJCa3dcjakUQ5oGv-41" target="KSneiJCa3dcjakUQ5oGv-46" edge="1">
          <mxGeometry relative="1" as="geometry" />
        </mxCell>
        <mxCell id="KSneiJCa3dcjakUQ5oGv-41" value="Score channels" style="whiteSpace=wrap;html=1;fillColor=light-dark(#9999FF,#000000);rounded=1;glass=0;strokeWidth=1;shadow=1;" parent="WIyWlLk6GJQsqaUBKTNV-1" vertex="1">
          <mxGeometry x="160" y="1550" width="120" height="60" as="geometry" />
        </mxCell>
        <mxCell id="KSneiJCa3dcjakUQ5oGv-43" value="call predict() on each part of Model" style="whiteSpace=wrap;html=1;fillColor=light-dark(#FFFFFF,#000000);rounded=1;glass=0;strokeWidth=1;shadow=0;" parent="WIyWlLk6GJQsqaUBKTNV-1" vertex="1">
          <mxGeometry x="360" y="1550" width="120" height="60" as="geometry" />
        </mxCell>
        <UserObject label="&lt;span id=&quot;d126e964353&quot; style=&quot;box-sizing: border-box; color: rgb(33, 33, 33); font-family: Roboto, sans-serif; font-size: 13px; font-style: normal; font-variant-ligatures: normal; font-variant-caps: normal; font-weight: 400; letter-spacing: normal; orphans: 2; text-align: start; text-indent: 0px; text-transform: none; widows: 2; word-spacing: 0px; -webkit-text-stroke-width: 0px; white-space: normal; background-color: rgb(255, 255, 255); text-decoration-thickness: initial; text-decoration-style: initial; text-decoration-color: initial;&quot;&gt;&lt;code class=&quot;synopsis&quot; style=&quot;box-sizing: border-box; font-family: Menlo, Monaco, Consolas, &amp;quot;Courier New&amp;quot;, monospace; font-size: inherit; padding: 0px; color: inherit; background-color: transparent; border-radius: 0px; white-space: normal;&quot;&gt;predict(&lt;a href=&quot;https://www.mathworks.com/help/stats/linearmodel.predict.html#bszh804-1_sep_shared-mdl&quot; class=&quot;intrnllnk&quot; style=&quot;box-sizing: border-box; background-color: rgba(0, 0, 0, 0); color: rgb(0, 118, 168); text-decoration: none;&quot;&gt;&lt;code class=&quot;argument&quot; style=&quot;box-sizing: border-box; font-family: Menlo, Monaco, Consolas, &amp;quot;Courier New&amp;quot;, monospace; font-size: inherit; padding: 0px; color: inherit; background-color: transparent; border-radius: 0px; white-space: normal;&quot;&gt;mdl&lt;/code&gt;&lt;/a&gt;,&lt;a href=&quot;https://www.mathworks.com/help/stats/linearmodel.predict.html#bszh804-1_sep_shared-Xnew&quot; class=&quot;intrnllnk&quot; style=&quot;box-sizing: border-box; background-color: rgba(0, 0, 0, 0); color: rgb(0, 118, 168); text-decoration: none;&quot;&gt;&lt;code class=&quot;argument&quot; style=&quot;box-sizing: border-box; font-family: Menlo, Monaco, Consolas, &amp;quot;Courier New&amp;quot;, monospace; font-size: inherit; padding: 0px; color: inherit; background-color: transparent; border-radius: 0px; white-space: normal;&quot;&gt;Xnew&lt;/code&gt;&lt;/a&gt;)&lt;/code&gt;&lt;/span&gt;&lt;span style=&quot;color: rgb(33, 33, 33); font-family: Roboto, sans-serif; font-size: 13px; font-style: normal; font-variant-ligatures: normal; font-variant-caps: normal; font-weight: 400; letter-spacing: normal; orphans: 2; text-align: start; text-indent: 0px; text-transform: none; widows: 2; word-spacing: 0px; -webkit-text-stroke-width: 0px; white-space: normal; background-color: rgb(255, 255, 255); text-decoration-thickness: initial; text-decoration-style: initial; text-decoration-color: initial; display: inline !important; float: none;&quot;&gt;&lt;span&gt;&amp;nbsp;&lt;/span&gt;returns the predicted response values of the linear regression model&lt;span&gt;&amp;nbsp;&lt;/span&gt;&lt;/span&gt;&lt;code class=&quot;argument&quot; style=&quot;box-sizing: border-box; font-family: Menlo, Monaco, Consolas, &amp;quot;Courier New&amp;quot;, monospace; font-size: 13px; padding: 0px; color: rgb(33, 33, 33); background-color: rgb(255, 255, 255); border-radius: 0px; white-space: normal; font-style: normal; font-variant-ligatures: normal; font-variant-caps: normal; font-weight: 400; letter-spacing: normal; orphans: 2; text-align: start; text-indent: 0px; text-transform: none; widows: 2; word-spacing: 0px; -webkit-text-stroke-width: 0px; text-decoration-thickness: initial; text-decoration-style: initial; text-decoration-color: initial;&quot;&gt;mdl&lt;/code&gt;&lt;span style=&quot;color: rgb(33, 33, 33); font-family: Roboto, sans-serif; font-size: 13px; font-style: normal; font-variant-ligatures: normal; font-variant-caps: normal; font-weight: 400; letter-spacing: normal; orphans: 2; text-align: start; text-indent: 0px; text-transform: none; widows: 2; word-spacing: 0px; -webkit-text-stroke-width: 0px; white-space: normal; background-color: rgb(255, 255, 255); text-decoration-thickness: initial; text-decoration-style: initial; text-decoration-color: initial; display: inline !important; float: none;&quot;&gt;&lt;span&gt;&amp;nbsp;&lt;/span&gt;to the points in&lt;span&gt;&amp;nbsp;&lt;/span&gt;&lt;/span&gt;&lt;code class=&quot;argument&quot; style=&quot;box-sizing: border-box; font-family: Menlo, Monaco, Consolas, &amp;quot;Courier New&amp;quot;, monospace; font-size: 13px; padding: 0px; color: rgb(33, 33, 33); background-color: rgb(255, 255, 255); border-radius: 0px; white-space: normal; font-style: normal; font-variant-ligatures: normal; font-variant-caps: normal; font-weight: 400; letter-spacing: normal; orphans: 2; text-align: start; text-indent: 0px; text-transform: none; widows: 2; word-spacing: 0px; -webkit-text-stroke-width: 0px; text-decoration-thickness: initial; text-decoration-style: initial; text-decoration-color: initial;&quot;&gt;Xnew&lt;/code&gt;&lt;span style=&quot;color: rgb(33, 33, 33); font-family: Roboto, sans-serif; font-size: 13px; font-style: normal; font-variant-ligatures: normal; font-variant-caps: normal; font-weight: 400; letter-spacing: normal; orphans: 2; text-align: start; text-indent: 0px; text-transform: none; widows: 2; word-spacing: 0px; -webkit-text-stroke-width: 0px; white-space: normal; background-color: rgb(255, 255, 255); text-decoration-thickness: initial; text-decoration-style: initial; text-decoration-color: initial; display: inline !important; float: none;&quot;&gt;.&lt;/span&gt;" link="&lt;span id=&quot;d126e964353&quot; style=&quot;box-sizing: border-box; color: rgb(33, 33, 33); font-family: Roboto, sans-serif; font-size: 13px; font-style: normal; font-variant-ligatures: normal; font-variant-caps: normal; font-weight: 400; letter-spacing: normal; orphans: 2; text-align: start; text-indent: 0px; text-transform: none; widows: 2; word-spacing: 0px; -webkit-text-stroke-width: 0px; white-space: normal; background-color: rgb(255, 255, 255); text-decoration-thickness: initial; text-decoration-style: initial; text-decoration-color: initial;&quot;&gt;&lt;code class=&quot;synopsis&quot; style=&quot;box-sizing: border-box; font-family: Menlo, Monaco, Consolas, &amp;quot;Courier New&amp;quot;, monospace; font-size: inherit; padding: 0px; color: inherit; background-color: transparent; border-radius: 0px; white-space: normal;&quot;&gt;predict(&lt;a href=&quot;https://www.mathworks.com/help/stats/linearmodel.predict.html#bszh804-1_sep_shared-mdl&quot; class=&quot;intrnllnk&quot; style=&quot;box-sizing: border-box; background-color: rgba(0, 0, 0, 0); color: rgb(0, 118, 168); text-decoration: none;&quot;&gt;&lt;code class=&quot;argument&quot; style=&quot;box-sizing: border-box; font-family: Menlo, Monaco, Consolas, &amp;quot;Courier New&amp;quot;, monospace; font-size: inherit; padding: 0px; color: inherit; background-color: transparent; border-radius: 0px; white-space: normal;&quot;&gt;mdl&lt;/code&gt;&lt;/a&gt;,&lt;a href=&quot;https://www.mathworks.com/help/stats/linearmodel.predict.html#bszh804-1_sep_shared-Xnew&quot; class=&quot;intrnllnk&quot; style=&quot;box-sizing: border-box; background-color: rgba(0, 0, 0, 0); color: rgb(0, 118, 168); text-decoration: none;&quot;&gt;&lt;code class=&quot;argument&quot; style=&quot;box-sizing: border-box; font-family: Menlo, Monaco, Consolas, &amp;quot;Courier New&amp;quot;, monospace; font-size: inherit; padding: 0px; color: inherit; background-color: transparent; border-radius: 0px; white-space: normal;&quot;&gt;Xnew&lt;/code&gt;&lt;/a&gt;)&lt;/code&gt;&lt;/span&gt;&lt;span style=&quot;color: rgb(33, 33, 33); font-family: Roboto, sans-serif; font-size: 13px; font-style: normal; font-variant-ligatures: normal; font-variant-caps: normal; font-weight: 400; letter-spacing: normal; orphans: 2; text-align: start; text-indent: 0px; text-transform: none; widows: 2; word-spacing: 0px; -webkit-text-stroke-width: 0px; white-space: normal; background-color: rgb(255, 255, 255); text-decoration-thickness: initial; text-decoration-style: initial; text-decoration-color: initial; display: inline !important; float: none;&quot;&gt;&lt;span&gt;&amp;nbsp;&lt;/span&gt;returns the predicted response values of the linear regression model&lt;span&gt;&amp;nbsp;&lt;/span&gt;&lt;/span&gt;&lt;code class=&quot;argument&quot; style=&quot;box-sizing: border-box; font-family: Menlo, Monaco, Consolas, &amp;quot;Courier New&amp;quot;, monospace; font-size: 13px; padding: 0px; color: rgb(33, 33, 33); background-color: rgb(255, 255, 255); border-radius: 0px; white-space: normal; font-style: normal; font-variant-ligatures: normal; font-variant-caps: normal; font-weight: 400; letter-spacing: normal; orphans: 2; text-align: start; text-indent: 0px; text-transform: none; widows: 2; word-spacing: 0px; -webkit-text-stroke-width: 0px; text-decoration-thickness: initial; text-decoration-style: initial; text-decoration-color: initial;&quot;&gt;mdl&lt;/code&gt;&lt;span style=&quot;color: rgb(33, 33, 33); font-family: Roboto, sans-serif; font-size: 13px; font-style: normal; font-variant-ligatures: normal; font-variant-caps: normal; font-weight: 400; letter-spacing: normal; orphans: 2; text-align: start; text-indent: 0px; text-transform: none; widows: 2; word-spacing: 0px; -webkit-text-stroke-width: 0px; white-space: normal; background-color: rgb(255, 255, 255); text-decoration-thickness: initial; text-decoration-style: initial; text-decoration-color: initial; display: inline !important; float: none;&quot;&gt;&lt;span&gt;&amp;nbsp;&lt;/span&gt;to the points in&lt;span&gt;&amp;nbsp;&lt;/span&gt;&lt;/span&gt;&lt;code class=&quot;argument&quot; style=&quot;box-sizing: border-box; font-family: Menlo, Monaco, Consolas, &amp;quot;Courier New&amp;quot;, monospace; font-size: 13px; padding: 0px; color: rgb(33, 33, 33); background-color: rgb(255, 255, 255); border-radius: 0px; white-space: normal; font-style: normal; font-variant-ligatures: normal; font-variant-caps: normal; font-weight: 400; letter-spacing: normal; orphans: 2; text-align: start; text-indent: 0px; text-transform: none; widows: 2; word-spacing: 0px; -webkit-text-stroke-width: 0px; text-decoration-thickness: initial; text-decoration-style: initial; text-decoration-color: initial;&quot;&gt;Xnew&lt;/code&gt;&lt;span style=&quot;color: rgb(33, 33, 33); font-family: Roboto, sans-serif; font-size: 13px; font-style: normal; font-variant-ligatures: normal; font-variant-caps: normal; font-weight: 400; letter-spacing: normal; orphans: 2; text-align: start; text-indent: 0px; text-transform: none; widows: 2; word-spacing: 0px; -webkit-text-stroke-width: 0px; white-space: normal; background-color: rgb(255, 255, 255); text-decoration-thickness: initial; text-decoration-style: initial; text-decoration-color: initial; display: inline !important; float: none;&quot;&gt;.&lt;/span&gt;" id="KSneiJCa3dcjakUQ5oGv-45">
          <mxCell style="text;whiteSpace=wrap;html=1;" parent="WIyWlLk6GJQsqaUBKTNV-1" vertex="1">
            <mxGeometry x="520" y="1510" width="470" height="30" as="geometry" />
          </mxCell>
        </UserObject>
        <mxCell id="KSneiJCa3dcjakUQ5oGv-49" value="" style="edgeStyle=orthogonalEdgeStyle;rounded=0;orthogonalLoop=1;jettySize=auto;html=1;" parent="WIyWlLk6GJQsqaUBKTNV-1" source="KSneiJCa3dcjakUQ5oGv-46" target="KSneiJCa3dcjakUQ5oGv-48" edge="1">
          <mxGeometry relative="1" as="geometry" />
        </mxCell>
        <mxCell id="KSneiJCa3dcjakUQ5oGv-46" value="Combine channels" style="whiteSpace=wrap;html=1;fillColor=light-dark(#FFE599,#000000);rounded=1;glass=0;strokeWidth=1;shadow=1;" parent="WIyWlLk6GJQsqaUBKTNV-1" vertex="1">
          <mxGeometry x="160" y="1690" width="120" height="60" as="geometry" />
        </mxCell>
        <mxCell id="KSneiJCa3dcjakUQ5oGv-51" value="" style="edgeStyle=orthogonalEdgeStyle;rounded=0;orthogonalLoop=1;jettySize=auto;html=1;" parent="WIyWlLk6GJQsqaUBKTNV-1" source="KSneiJCa3dcjakUQ5oGv-48" target="KSneiJCa3dcjakUQ5oGv-50" edge="1">
          <mxGeometry relative="1" as="geometry" />
        </mxCell>
        <mxCell id="KSneiJCa3dcjakUQ5oGv-48" value="Label stages to epochs depending on confidences" style="whiteSpace=wrap;html=1;fillColor=light-dark(#FFFFFF,#000000);rounded=1;glass=0;strokeWidth=1;shadow=1;" parent="WIyWlLk6GJQsqaUBKTNV-1" vertex="1">
          <mxGeometry x="150" y="1830" width="140" height="80" as="geometry" />
        </mxCell>
        <mxCell id="KSneiJCa3dcjakUQ5oGv-50" value="Fill in output variables" style="whiteSpace=wrap;html=1;fillColor=light-dark(#FFFFFF,#000000);rounded=1;glass=0;strokeWidth=1;shadow=1;" parent="WIyWlLk6GJQsqaUBKTNV-1" vertex="1">
          <mxGeometry x="150" y="1990" width="140" height="40" as="geometry" />
        </mxCell>
        <mxCell id="KSneiJCa3dcjakUQ5oGv-52" value="I have 20 clusters, each channel belongs to a cluster (how is it assigned?)" style="text;html=1;align=center;verticalAlign=middle;resizable=0;points=[];autosize=1;strokeColor=none;fillColor=none;" parent="WIyWlLk6GJQsqaUBKTNV-1" vertex="1">
          <mxGeometry x="320" y="1410" width="420" height="30" as="geometry" />
        </mxCell>
        <mxCell id="TrvgTkUY0OSFZOKpx4KV-5" value="" style="edgeStyle=orthogonalEdgeStyle;rounded=0;orthogonalLoop=1;jettySize=auto;html=1;" parent="WIyWlLk6GJQsqaUBKTNV-1" source="TrvgTkUY0OSFZOKpx4KV-3" target="KSneiJCa3dcjakUQ5oGv-5" edge="1">
          <mxGeometry relative="1" as="geometry" />
        </mxCell>
        <mxCell id="TrvgTkUY0OSFZOKpx4KV-3" value="Manually select channels" style="rhombus;whiteSpace=wrap;html=1;rounded=1;glass=0;strokeWidth=1;shadow=0;" parent="WIyWlLk6GJQsqaUBKTNV-1" vertex="1">
          <mxGeometry x="100" y="290" width="240" height="80" as="geometry" />
        </mxCell>
        <mxCell id="fW-BFmnXzl84MXB9v9qA-0" value="For each electrode family, create bipolar channels from consecutive electrodes (e.g. FP1 - FP2), else do nothing with that one. Channels will then be manually selected&amp;nbsp;" style="rounded=1;whiteSpace=wrap;html=1;fontSize=12;glass=0;strokeWidth=1;shadow=0;" parent="WIyWlLk6GJQsqaUBKTNV-1" vertex="1">
          <mxGeometry x="390" y="185" width="230" height="90" as="geometry" />
        </mxCell>
      </root>
    </mxGraphModel>
  </diagram>
</mxfile>
